<svg xmlns="http://www.w3.org/2000/svg" xmlns:xlink="http://www.w3.org/1999/xlink" width="500" zoomAndPan="magnify" viewBox="0 0 375 374.999991" height="500" preserveAspectRatio="xMidYMid meet" version="1.0"><defs><g/><clipPath id="5f0324e741"><path d="M 185.25 237.398438 L 203 237.398438 L 203 255.398438 L 185.25 255.398438 Z M 185.25 237.398438 " clip-rule="nonzero"/></clipPath></defs><path fill="#b0975f" d="M 185.554688 198.160156 C 182.558594 196.84375 176.769531 210.835938 174.734375 213.328125 C 176.46875 208.300781 178.804688 203.53125 180.988281 198.667969 C 177.992188 201.675781 175.925781 205.359375 173.324219 208.671875 C 174.269531 206.929688 175.210938 205.183594 176.152344 203.441406 C 174.007812 206.367188 171.488281 209.007812 169.863281 212.289062 C 169.777344 212.246094 169.695312 212.199219 169.609375 212.15625 C 171.519531 207.855469 174.09375 204.074219 176.363281 199.960938 C 175 200.730469 165.398438 214.140625 165.308594 211.570312 C 165.238281 210.078125 163.960938 208.160156 165.160156 206.933594 C 168.234375 203.0625 171.703125 199.582031 175.574219 196.511719 C 177.535156 195.328125 175.976562 194.511719 175.808594 192.792969 C 174.085938 184.882812 167.769531 179.171875 165.625 171.335938 C 164.398438 177.421875 163.355469 183.554688 161.625 189.527344 C 160.292969 192.316406 153.550781 191.550781 150.804688 191.359375 C 149.953125 191.21875 149.769531 190.996094 150.027344 190.09375 C 151.660156 184.375 152.414062 178.5 153.164062 172.617188 C 153.902344 166.769531 154.421875 160.914062 154.34375 155.011719 C 154.164062 149.5 157.03125 144.25 162.648438 142.953125 C 175.367188 140.191406 187.640625 128.441406 184.8125 114.902344 C 184.195312 114.6875 183.75 115.402344 183.347656 115.859375 C 181.472656 118.011719 179.488281 120.011719 176.65625 120.925781 C 178.265625 120.996094 179.460938 120.265625 180.941406 119.628906 C 178.28125 122.402344 173.585938 122.683594 169.953125 121.914062 C 161.0625 119.667969 162.726562 107.972656 168.414062 102.996094 C 159.769531 107.003906 161.257812 124.199219 172.554688 122.523438 C 164.238281 124.75 159.167969 117.558594 161.679688 107.339844 C 159.769531 109.550781 159.46875 112.78125 160.730469 117.558594 C 159.347656 116.722656 159.5625 114.011719 158.621094 112.535156 C 153.945312 107.675781 157.175781 98.707031 163.605469 97.25 C 165.867188 96.519531 161.328125 90.933594 169.503906 88.898438 C 166.898438 85.171875 166.898438 85.171875 167.019531 83.933594 C 167.464844 85.359375 167.992188 86.527344 169.117188 87.445312 C 167.667969 83.574219 168.09375 78.542969 172.566406 77.304688 C 173.019531 77.171875 173.621094 76.78125 173.347656 77.835938 C 173.273438 79.167969 175.28125 78.847656 174.21875 77.554688 C 174.042969 77.226562 173.617188 77.035156 173.6875 76.496094 C 175.871094 76.492188 175.429688 80.675781 176.847656 79.753906 C 176.90625 79.722656 177.007812 79.722656 177.070312 79.75 C 178.53125 80.527344 177.773438 78.324219 177.546875 77.628906 C 177.511719 77.386719 177.125 76.5 176.59375 77.421875 C 173.707031 78.316406 177.539062 72.015625 178.695312 71.578125 C 179.304688 70.640625 186.050781 68.007812 185.289062 70.25 C 184.839844 71.019531 186.332031 70.941406 185.441406 71.730469 C 185.070312 72.160156 184.875 72.648438 185.773438 72.726562 C 187.445312 72.835938 184.46875 74.257812 186.402344 74.484375 C 187.414062 73.972656 186.152344 72.941406 187.425781 72.328125 C 187.929688 71.964844 187.355469 70.382812 186.8125 71.300781 C 186.457031 71.566406 186.054688 70.730469 186.515625 70.632812 C 187.796875 70.265625 186.085938 69.011719 186.859375 68.378906 C 187.257812 68.132812 187.808594 68.089844 188.300781 68.054688 C 188.761719 68.015625 188.707031 69.285156 188.167969 68.75 C 187.890625 68.570312 187.585938 68.710938 187.546875 69.019531 C 187.492188 69.464844 187.28125 69.992188 187.617188 70.359375 C 191.214844 68.996094 196.132812 68.789062 200.027344 70.390625 C 197.484375 70.257812 194.945312 70.03125 192.503906 71 C 206.667969 69.449219 207.457031 76.140625 217.695312 80.226562 C 221.074219 81.394531 225.167969 83.976562 224.710938 88.082031 C 224.78125 91.140625 227.972656 93.164062 227.476562 96.519531 C 226.976562 94.621094 226.378906 92.765625 225.042969 91.25 C 227.738281 96.804688 227.183594 105 220.929688 107.847656 C 225.738281 104.195312 226.359375 97.5625 223.078125 92.484375 C 222.988281 95.734375 222.039062 98.402344 220.148438 100.75 C 221.371094 96.882812 223.273438 93.035156 220.222656 89.179688 C 223.371094 99.84375 214.542969 103.808594 219.222656 110.773438 C 220.5625 112.835938 220.878906 113.34375 218.050781 114.332031 C 215.402344 115.5 218.257812 116.761719 217.511719 117.714844 C 216.898438 118.820312 215.96875 119.203125 214.699219 119.242188 C 216.511719 119.347656 217.128906 121.257812 215.207031 121.835938 C 214.269531 122.105469 214.003906 122.648438 213.921875 123.597656 C 213.210938 129.863281 205.785156 125.574219 202.566406 123.804688 C 199.445312 121.710938 198.921875 126.921875 198.402344 128.96875 C 197.585938 137 206.582031 139.957031 212.886719 141.03125 C 208.546875 141.851562 204.289062 142.453125 199.988281 142.800781 C 206.058594 143.621094 212.011719 141.484375 218.035156 142.34375 C 228.722656 144.230469 226.355469 156.476562 225.25 164.410156 C 224.382812 173.792969 222.917969 183.414062 224.859375 192.75 C 225.035156 193.492188 224.925781 193.867188 224.03125 194.128906 C 222.320312 194.792969 212.476562 195.386719 212.695312 193.078125 C 213.359375 187.789062 213.902344 182.007812 218.054688 178.144531 C 222.835938 173.703125 221.96875 166.589844 219.386719 162.246094 C 212.160156 153.144531 197.019531 172.527344 198.589844 180.726562 C 196.605469 172.402344 192.109375 166.152344 184.203125 162.476562 C 179.359375 160.144531 173.523438 158.230469 168.570312 161.582031 C 170.746094 161.617188 172.617188 161.777344 174.273438 162.808594 C 172.144531 162.976562 170.042969 162.160156 167.90625 162.832031 C 171.117188 163.804688 173.976562 164.027344 176.917969 166.152344 C 173.921875 165.464844 171.683594 164.402344 168.722656 165.144531 C 169.59375 165.152344 179.863281 169.589844 175.242188 169.277344 C 173.160156 168.527344 171.085938 167.476562 168.835938 167.46875 C 173.449219 171.097656 178.097656 174.703125 182.59375 178.296875 C 179.128906 176.292969 175.664062 174.289062 172.195312 172.289062 C 172.148438 172.34375 172.105469 172.402344 172.058594 172.457031 C 178.617188 177.808594 186.179688 181.890625 191.996094 188.128906 C 185.632812 183.789062 177.886719 181.992188 171.847656 177.078125 C 176.324219 182.824219 184.097656 184.539062 188.980469 189.648438 C 187.070312 188.65625 185.246094 187.707031 183.414062 186.753906 C 184.621094 188.871094 186.867188 189.785156 188.46875 191.445312 C 186.320312 190.75 184.480469 189.277344 182.136719 189.042969 C 184.214844 190.90625 186.777344 192.144531 188.953125 194.390625 C 188.046875 194.03125 187.40625 193.777344 186.640625 193.46875 C 186.824219 194.015625 187 194.664062 186.242188 194.527344 C 184.871094 194.273438 183.449219 194.742188 182.105469 194.164062 C 181.886719 194.679688 182.574219 194.667969 182.628906 195.117188 C 181.246094 194.714844 180.074219 194.050781 179.066406 193.089844 C 181.09375 195.957031 184.320312 196.75 187.433594 197.945312 C 186.804688 198.386719 186.148438 198.03125 185.558594 198.140625 Z M 206.453125 77.328125 C 192.992188 79.90625 191.105469 95.6875 174.3125 91.335938 C 180.523438 94.78125 186.925781 92.144531 193.140625 89.484375 C 192.265625 89.429688 191.757812 89.953125 191.128906 89.816406 C 192.828125 87.726562 195.417969 86.234375 197.355469 84.246094 C 200.1875 81.691406 202.730469 78.738281 206.453125 77.328125 Z M 197.800781 97.550781 C 205.773438 100.945312 215.679688 93.472656 214.902344 85.671875 C 211.976562 93.832031 206.511719 97.691406 197.800781 97.550781 Z M 168.277344 95.253906 C 170.878906 105.632812 186.144531 107.183594 191.140625 98.179688 C 190.617188 98.367188 190.429688 99.039062 189.65625 99.195312 C 189.996094 98.621094 190.238281 98.21875 190.597656 97.597656 C 182.480469 105.230469 173.632812 106.1875 168.277344 95.253906 Z M 183.539062 93.519531 C 192.777344 94.933594 205.863281 90.40625 208.875 84.542969 C 201.339844 90.546875 193.058594 93.746094 183.539062 93.519531 Z M 165.984375 99.191406 C 159.875 99.460938 154.121094 106.214844 158.855469 111.75 C 159.023438 109.980469 157.117188 107.933594 158.058594 106.320312 C 158.097656 106.613281 158.140625 106.902344 158.171875 107.121094 C 158.867188 102.621094 162.214844 100.714844 165.984375 99.191406 Z M 212.828125 84.136719 C 210.921875 90.320312 206.578125 94.152344 200.816406 96.621094 C 206.8125 95.296875 212.636719 90.101562 212.828125 84.136719 Z M 191.988281 111.144531 C 191.480469 113.570312 187.695312 119.207031 192.300781 119.472656 C 195.996094 118.1875 192.308594 113.679688 191.988281 111.144531 Z M 174.046875 100.023438 C 177.75 102.195312 184.03125 100.992188 186.59375 97.589844 C 182.582031 99.742188 178.632812 100.972656 174.046875 100.023438 Z M 173.492188 109.1875 C 175.933594 113.617188 182.960938 114.507812 186.679688 111.085938 C 181.859375 113.214844 177.390625 113.257812 173.492188 109.1875 Z M 178.441406 119.019531 C 174.421875 120.890625 168.882812 120.242188 166.371094 114.144531 C 167.453125 120.070312 173.851562 122.171875 178.441406 119.019531 Z M 178.285156 87.007812 C 180.21875 86.382812 177.839844 84.746094 179.300781 84.460938 C 180.4375 84.28125 179.621094 82.125 178.683594 82.949219 C 177.828125 83.5625 177.132812 81.707031 176.523438 82.429688 C 176.277344 82.710938 175.914062 83.070312 176.171875 83.445312 C 176.644531 84.105469 177.199219 82.910156 177.703125 83.296875 C 178.09375 83.707031 176.933594 84.289062 177.332031 84.578125 C 178.414062 85.109375 177.855469 86.226562 178.285156 87.007812 Z M 176.570312 142.261719 C 180.441406 142.59375 184.335938 142.703125 188.230469 142.675781 C 184.378906 141.738281 180.484375 141.855469 176.570312 142.261719 Z M 208.914062 76.351562 C 205.195312 75.800781 201.613281 76.089844 198.414062 78.386719 C 201.800781 77.140625 205.269531 76.347656 208.914062 76.351562 Z M 220.097656 83.515625 C 221.289062 85.132812 222.480469 86.746094 223.726562 88.433594 C 224.035156 86.257812 222.738281 84.429688 220.097656 83.515625 Z M 193.300781 107.746094 C 196.605469 107.671875 199.144531 106.160156 201.09375 103.5625 C 198.898438 105.679688 196.3125 107.078125 193.300781 107.746094 Z M 192.96875 121.410156 C 193.003906 119.433594 191.328125 119.636719 191.296875 121.492188 C 191.0625 122.820312 193.191406 122.832031 192.96875 121.410156 Z M 184.15625 76.164062 C 184.460938 74.96875 183.007812 75.144531 182.785156 76.226562 C 182.75 76.640625 182.332031 77.238281 182.917969 77.445312 C 183.304688 77.566406 183.652344 78.003906 184.082031 77.773438 C 184.632812 77.355469 183.890625 76.917969 184.15625 76.164062 Z M 181.035156 75.925781 C 180.519531 76.164062 180.121094 76.671875 179.460938 76.527344 C 178.929688 76.519531 178.886719 77.097656 179.4375 77.101562 C 179.804688 77.457031 180.855469 76.949219 180.628906 78.0625 C 180.585938 78.292969 180.621094 78.773438 181.085938 78.644531 C 182.003906 78.171875 181.03125 76.804688 181.035156 75.925781 Z M 181.597656 86.695312 C 183.15625 87.863281 179.664062 87.140625 182.773438 89.601562 C 183.304688 88.214844 183.035156 87.46875 181.597656 86.695312 Z M 174.734375 79.246094 C 174.378906 79.957031 173.171875 79.929688 173.484375 80.992188 C 174.261719 81.933594 175.890625 80.347656 174.734375 79.246094 Z M 198.027344 169.917969 C 198.164062 167.828125 197.945312 165.808594 196.679688 164.023438 C 197.289062 165.949219 197.777344 167.902344 198.027344 169.917969 Z M 178.671875 79.804688 C 177.957031 80.023438 178.214844 80.808594 177.714844 81.09375 C 177.128906 81.378906 177.875 82.644531 178.351562 82.066406 C 178.65625 81.851562 179.15625 81.625 178.839844 81.203125 C 178.5 80.75 178.792969 80.320312 178.671875 79.804688 Z M 180.121094 73.742188 C 180.699219 73.707031 181.355469 74.359375 181.695312 73.71875 C 181.941406 73.25 181.578125 72.414062 181.117188 72.371094 C 180.429688 72.300781 180.625 73.332031 180.121094 73.742188 Z M 183.410156 74.375 C 183.957031 74.003906 184.542969 71.925781 183.613281 71.921875 C 182.988281 71.929688 182.625 72.324219 182.710938 73.003906 C 183.230469 73.070312 183.015625 72.402344 183.46875 72.511719 C 183.863281 73.125 183.078125 73.65625 183.410156 74.375 Z M 175.019531 83.320312 C 174.242188 83.308594 174.359375 84.277344 173.703125 84.375 C 173.5 84.40625 173.179688 84.691406 173.457031 84.984375 C 174.15625 85.5 174.523438 84.25 175.164062 84.136719 C 175.859375 84.023438 175.449219 83.46875 175.019531 83.320312 Z M 185.816406 79.183594 C 184.546875 79.578125 185.613281 80.558594 186.324219 80.773438 C 187.492188 80.664062 186.308594 79.441406 185.816406 79.183594 Z M 181.796875 83.121094 C 182.003906 81.640625 180.667969 81.6875 180.734375 83.101562 C 180.777344 83.984375 182.308594 84.199219 181.796875 83.121094 Z M 183.988281 82.921875 C 183.929688 82.027344 182.648438 81.589844 182.695312 82.722656 C 182.550781 83.6875 183.871094 83.992188 183.988281 82.921875 Z M 181.910156 85.441406 C 182.140625 86.097656 183.617188 86.609375 183.695312 85.6875 C 183.484375 85.109375 182.128906 84.542969 181.910156 85.441406 Z M 180.125 87.546875 C 179.953125 86.441406 178.636719 87.078125 178.542969 87.855469 C 178.613281 88.636719 180.074219 88.273438 180.125 87.546875 Z M 183.183594 81.105469 C 183.851562 81.367188 184.65625 82.265625 185.152344 81.492188 C 185.234375 80.515625 183.828125 80.578125 183.183594 81.105469 Z M 181.222656 79.257812 C 180.746094 79.507812 180.890625 80.152344 181.28125 80.355469 C 181.628906 80.539062 181.675781 81.1875 182.242188 80.988281 C 182.910156 80.460938 181.488281 79.78125 181.222656 79.257812 Z M 190.164062 74.8125 C 190.007812 74.429688 189.550781 74.425781 189.476562 74.027344 C 189.429688 73.773438 189.234375 73.519531 188.898438 73.691406 C 188.617188 73.832031 188.601562 74.128906 188.65625 74.390625 C 188.875 75.539062 189.597656 74.777344 190.164062 74.8125 Z M 177.125 89.027344 C 177.28125 88.082031 175.9375 88.308594 176.074219 89.128906 C 175.890625 90.175781 177.164062 89.917969 177.125 89.027344 Z M 188.242188 77.011719 C 188.007812 76.414062 188.714844 75.625 188.089844 75.335938 C 187.515625 75.074219 187.601562 76.050781 187.015625 76.207031 C 187.515625 76.535156 187.878906 76.773438 188.242188 77.011719 Z M 185.820312 78.066406 C 185.476562 77.722656 185.597656 76.988281 184.964844 76.773438 C 184.785156 76.714844 184.609375 77.007812 184.71875 77.171875 C 185.007812 77.601562 184.6875 78.414062 185.515625 78.503906 C 185.734375 78.53125 185.859375 78.382812 185.820312 78.066406 Z M 183.441406 80.074219 C 183.882812 80.015625 184.125 79.769531 184.113281 79.308594 C 184.039062 77.871094 181.796875 79.859375 183.441406 80.074219 Z M 185.144531 75.890625 C 187.195312 77.117188 186.925781 74.898438 185.894531 75.261719 C 185.617188 75.378906 185.167969 75.332031 185.144531 75.890625 Z M 181.25 84.96875 C 181.105469 84.273438 179.9375 84.441406 179.894531 85.03125 C 179.917969 85.761719 181.199219 85.730469 181.25 84.96875 Z M 180.832031 88.800781 C 180.902344 87.832031 179.867188 88.589844 179.839844 89.164062 C 179.769531 90.152344 180.976562 89.503906 180.832031 88.800781 Z M 180.507812 80.710938 C 180.527344 79.574219 179.546875 79.933594 179.578125 80.847656 C 179.347656 81.816406 180.613281 81.570312 180.507812 80.710938 Z M 179.644531 75.402344 C 179.484375 75.140625 179.761719 74.617188 179.277344 74.574219 C 178.929688 74.542969 178.617188 74.808594 178.628906 75.222656 C 178.574219 75.902344 179.828125 76.320312 179.644531 75.402344 Z M 187.324219 77.636719 C 186.972656 75.738281 185.714844 78.230469 186.75 78.398438 C 187.160156 78.371094 187.242188 77.972656 187.324219 77.636719 Z M 190.519531 76.042969 C 190.601562 75.554688 189.511719 75.515625 189.386719 75.914062 C 189.238281 76.519531 190.339844 76.542969 190.519531 76.042969 Z M 172.550781 84.566406 C 173.019531 84.238281 173.652344 84.097656 173.933594 83.308594 C 173.199219 83.558594 172.625 83.753906 172.550781 84.566406 Z M 175.746094 86.363281 C 175.6875 86.132812 175.839844 85.726562 175.40625 85.785156 C 174.929688 85.855469 174.914062 87.078125 175.464844 87.039062 C 175.835938 86.996094 175.664062 86.597656 175.746094 86.363281 Z M 182.261719 75.277344 C 182.75 75.222656 182.910156 74.265625 182.285156 74.304688 C 181.582031 74.265625 181.515625 75.199219 182.261719 75.277344 Z M 182.261719 75.277344 " fill-opacity="1" fill-rule="nonzero"/><path fill="#b0975f" d="M 252.140625 210.585938 C 246.261719 210.539062 241.460938 206.296875 240.972656 200.671875 C 239.828125 189.636719 258.480469 188.582031 254.128906 199.488281 C 250.851562 203.859375 247.929688 197.65625 251.929688 198.496094 C 252.621094 198.917969 252.800781 198.488281 252.984375 197.953125 C 253.675781 189.398438 239.628906 194.175781 243.226562 202.734375 C 244.75 206.699219 248.742188 209.144531 253.109375 208.78125 C 271.84375 204.042969 258.699219 178.855469 239.089844 186.539062 C 235.328125 187.757812 231.984375 190.039062 228.195312 191.160156 C 227.492188 191.371094 226.101562 189.378906 227.3125 189.351562 C 231.453125 188.855469 234.863281 185.828125 238.910156 184.765625 C 261.464844 176.507812 275.03125 206.996094 252.140625 210.585938 Z M 252.140625 210.585938 " fill-opacity="1" fill-rule="nonzero"/><path fill="#b0975f" d="M 203.988281 186.167969 C 209.4375 179.96875 215.785156 174.644531 220.234375 167.617188 C 222.273438 174.714844 214.777344 178.582031 211.171875 183.0625 C 212.449219 182.300781 213.640625 181.59375 215.136719 180.703125 C 213.878906 185 212.15625 188.460938 211.683594 192.785156 C 211.574219 194.929688 209.726562 195.671875 207.910156 195.84375 C 208.371094 194.25 210.527344 193.585938 210.054688 191.578125 C 209.941406 191.019531 210.574219 190.726562 210.574219 190.09375 C 210.1875 190.375 209.765625 190.863281 209.785156 189.855469 C 209.804688 188.855469 210.808594 188.4375 210.980469 187.371094 C 208.753906 189.246094 206.804688 191.203125 204.628906 192.941406 C 206.527344 190.785156 208.421875 188.625 210.320312 186.46875 C 210.253906 186.394531 210.183594 186.320312 210.117188 186.246094 C 207.996094 187.613281 205.710938 188.730469 203.796875 190.464844 C 208.234375 184.980469 212.972656 179.761719 217.628906 174.472656 C 217.515625 174.359375 217.40625 174.242188 217.292969 174.128906 C 212.828125 178.09375 208.425781 182.136719 204.402344 186.554688 C 204.265625 186.425781 204.128906 186.296875 203.988281 186.167969 Z M 203.988281 186.167969 " fill-opacity="1" fill-rule="nonzero"/><path fill="#b0975f" d="M 215.460938 199.816406 C 213.679688 198.714844 211.441406 196.042969 209.277344 197.136719 C 210.035156 198.507812 211.566406 199.585938 212.253906 201.339844 C 210.597656 200.574219 210.070312 198.4375 208.367188 197.546875 C 207.929688 197.265625 207.96875 197.015625 208.4375 196.8125 C 212.195312 194.59375 213.304688 196.773438 215.667969 199.628906 C 215.59375 199.691406 215.527344 199.753906 215.460938 199.816406 Z M 215.460938 199.816406 " fill-opacity="1" fill-rule="nonzero"/><path fill="#b0975f" d="M 213.125 161.660156 C 209.117188 164.78125 205.480469 168.296875 202.019531 172.234375 C 202.851562 170.03125 210.378906 162.847656 213.125 161.660156 Z M 213.125 161.660156 " fill-opacity="1" fill-rule="nonzero"/><path fill="#b0975f" d="M 187.539062 199.285156 C 185.863281 202.816406 184.183594 206.34375 182.507812 209.875 C 183.671875 206.085938 184.953125 202.351562 187.300781 199.117188 C 187.378906 199.171875 187.460938 199.230469 187.539062 199.285156 Z M 187.539062 199.285156 " fill-opacity="1" fill-rule="nonzero"/><path fill="#b0975f" d="M 185.542969 198.144531 C 183.867188 200.175781 183.660156 203.328125 181.359375 204.742188 C 182.507812 202.585938 183.097656 198.816406 185.554688 198.15625 C 185.554688 198.160156 185.542969 198.144531 185.542969 198.144531 Z M 185.542969 198.144531 " fill-opacity="1" fill-rule="nonzero"/><path fill="#b0975f" d="M 219.183594 164.871094 C 217.371094 167.429688 214.992188 169.429688 212.632812 171.449219 C 214.816406 169.257812 217 167.0625 219.183594 164.871094 Z M 219.183594 164.871094 " fill-opacity="1" fill-rule="nonzero"/><path fill="#b0975f" d="M 219.570312 105.34375 C 221.925781 103.402344 223.601562 101.394531 223.953125 98.425781 C 224.679688 100.875 222.582031 104.28125 219.570312 105.34375 Z M 219.570312 105.34375 " fill-opacity="1" fill-rule="nonzero"/><path fill="#b0975f" d="M 191.574219 169.15625 C 193.109375 170.222656 194.175781 171.679688 194.886719 173.410156 C 193.875 171.925781 192.777344 170.507812 191.574219 169.15625 Z M 191.574219 169.15625 " fill-opacity="1" fill-rule="nonzero"/><path fill="#b0975f" d="M 178.691406 162.125 C 180.136719 162.488281 181.332031 163.277344 182.382812 164.300781 C 181.152344 163.578125 179.917969 162.851562 178.691406 162.125 Z M 178.691406 162.125 " fill-opacity="1" fill-rule="nonzero"/><path fill="#b0975f" d="M 191.878906 112.953125 C 192.636719 114.746094 194.351562 117.992188 192.003906 118.675781 C 189.5625 118.160156 191.488281 114.800781 191.878906 112.953125 Z M 191.878906 112.953125 " fill-opacity="1" fill-rule="nonzero"/><path fill="#b0975f" d="M 122.824219 209.386719 C 128.703125 209.339844 133.5 205.097656 133.992188 199.472656 C 135.136719 188.4375 116.484375 187.382812 120.835938 198.289062 C 124.109375 202.660156 127.035156 196.453125 123.035156 197.296875 C 122.34375 197.71875 122.164062 197.289062 121.980469 196.75 C 121.285156 188.199219 135.335938 192.972656 131.738281 201.535156 C 130.214844 205.5 126.21875 207.945312 121.855469 207.582031 C 103.117188 202.84375 116.265625 177.652344 135.875 185.339844 C 139.632812 186.558594 142.980469 188.839844 146.765625 189.960938 C 147.46875 190.171875 148.863281 188.179688 147.652344 188.152344 C 143.511719 187.652344 140.101562 184.628906 136.050781 183.566406 C 113.503906 175.3125 99.929688 205.796875 122.824219 209.386719 Z M 122.824219 209.386719 " fill-opacity="1" fill-rule="nonzero"/><g fill="#b0975f" fill-opacity="1"><g transform="translate(102.642452, 265.390075)"><g><path d="M 31.84375 0.640625 C 28.125 0.640625 24.765625 0.0078125 21.765625 -1.25 C 18.765625 -2.507812 16.148438 -4.21875 13.921875 -6.375 C 11.703125 -8.539062 9.84375 -11.023438 8.34375 -13.828125 C 6.84375 -16.640625 5.71875 -19.609375 4.96875 -22.734375 C 4.226562 -25.859375 3.859375 -28.976562 3.859375 -32.09375 C 3.859375 -35.21875 4.226562 -38.34375 4.96875 -41.46875 C 5.71875 -44.59375 6.84375 -47.554688 8.34375 -50.359375 C 9.84375 -53.171875 11.703125 -55.65625 13.921875 -57.8125 C 16.148438 -59.976562 18.765625 -61.691406 21.765625 -62.953125 C 24.765625 -64.210938 28.125 -64.84375 31.84375 -64.84375 C 35.613281 -64.84375 38.71875 -64.53125 41.15625 -63.90625 C 43.59375 -63.289062 45.398438 -62.660156 46.578125 -62.015625 C 47.753906 -61.378906 48.34375 -61.0625 48.34375 -61.0625 L 48.34375 -54.515625 C 46.207031 -56.566406 44.21875 -58.222656 42.375 -59.484375 C 40.53125 -60.742188 38.582031 -61.671875 36.53125 -62.265625 C 34.476562 -62.867188 32.015625 -63.171875 29.140625 -63.171875 C 26.148438 -63.171875 23.390625 -62.328125 20.859375 -60.640625 C 18.335938 -58.953125 16.132812 -56.648438 14.25 -53.734375 C 12.363281 -50.828125 10.90625 -47.507812 9.875 -43.78125 C 8.851562 -40.0625 8.34375 -36.164062 8.34375 -32.09375 C 8.34375 -28.03125 8.851562 -24.101562 9.875 -20.3125 C 10.90625 -16.53125 12.40625 -13.140625 14.375 -10.140625 C 16.34375 -7.148438 18.789062 -4.773438 21.71875 -3.015625 C 24.65625 -1.265625 28.007812 -0.390625 31.78125 -0.390625 C 34.644531 -0.390625 37.050781 -0.75 39 -1.46875 C 40.945312 -2.195312 42.53125 -3.140625 43.75 -4.296875 C 44.96875 -5.453125 45.910156 -6.679688 46.578125 -7.984375 C 47.242188 -9.296875 47.703125 -10.53125 47.953125 -11.6875 C 48.210938 -12.84375 48.363281 -13.78125 48.40625 -14.5 C 48.445312 -15.226562 48.46875 -15.59375 48.46875 -15.59375 L 51.484375 -15.59375 C 51.484375 -15.59375 51.421875 -15.195312 51.296875 -14.40625 C 51.171875 -13.613281 50.90625 -12.609375 50.5 -11.390625 C 50.09375 -10.171875 49.457031 -8.863281 48.59375 -7.46875 C 47.738281 -6.082031 46.59375 -4.78125 45.15625 -3.5625 C 43.726562 -2.34375 41.921875 -1.335938 39.734375 -0.546875 C 37.554688 0.242188 34.925781 0.640625 31.84375 0.640625 Z M 31.84375 0.640625 "/></g></g></g><g fill="#b0975f" fill-opacity="1"><g transform="translate(151.696564, 265.390075)"><g><path d="M 16.171875 0.640625 C 13.910156 0.640625 11.816406 0.191406 9.890625 -0.703125 C 7.960938 -1.597656 6.421875 -2.96875 5.265625 -4.8125 C 4.109375 -6.65625 3.53125 -9.007812 3.53125 -11.875 C 3.53125 -15.34375 4.40625 -18.367188 6.15625 -20.953125 C 7.914062 -23.546875 10.3125 -25.554688 13.34375 -26.984375 C 16.382812 -28.421875 19.832031 -29.140625 23.6875 -29.140625 C 25.101562 -29.140625 26.523438 -29.03125 27.953125 -28.8125 C 29.390625 -28.601562 30.878906 -28.160156 32.421875 -27.484375 L 31.78125 -26.453125 C 30.707031 -27.046875 29.460938 -27.472656 28.046875 -27.734375 C 26.640625 -27.992188 25.316406 -28.125 24.078125 -28.125 C 21.035156 -28.125 18.328125 -27.40625 15.953125 -25.96875 C 13.578125 -24.53125 11.703125 -22.613281 10.328125 -20.21875 C 8.960938 -17.820312 8.28125 -15.210938 8.28125 -12.390625 C 8.28125 -9.910156 8.828125 -7.878906 9.921875 -6.296875 C 11.015625 -4.710938 12.46875 -3.546875 14.28125 -2.796875 C 16.101562 -2.046875 18.0625 -1.671875 20.15625 -1.671875 C 22.851562 -1.671875 25.15625 -2.300781 27.0625 -3.5625 C 28.96875 -4.820312 30.519531 -6.507812 31.71875 -8.625 C 32.914062 -10.75 33.78125 -13.125 34.3125 -15.75 C 34.851562 -18.382812 35.125 -21.050781 35.125 -23.75 C 35.125 -25.632812 34.875 -27.519531 34.375 -29.40625 C 33.882812 -31.289062 33.113281 -33.015625 32.0625 -34.578125 C 31.019531 -36.140625 29.679688 -37.390625 28.046875 -38.328125 C 26.421875 -39.265625 24.476562 -39.734375 22.21875 -39.734375 C 20.207031 -39.734375 18.351562 -39.410156 16.65625 -38.765625 C 14.96875 -38.128906 13.4375 -37.316406 12.0625 -36.328125 C 10.695312 -35.347656 9.5 -34.320312 8.46875 -33.25 C 7.445312 -32.1875 6.59375 -31.25 5.90625 -30.4375 L 5.90625 -36.71875 C 6.71875 -37.28125 7.90625 -37.867188 9.46875 -38.484375 C 11.03125 -39.109375 12.878906 -39.644531 15.015625 -40.09375 C 17.160156 -40.539062 19.429688 -40.765625 21.828125 -40.765625 C 25.335938 -40.765625 28.441406 -40.144531 31.140625 -38.90625 C 33.835938 -37.664062 35.957031 -35.800781 37.5 -33.3125 C 39.039062 -30.832031 39.8125 -27.734375 39.8125 -24.015625 C 39.8125 -21.191406 39.242188 -18.332031 38.109375 -15.4375 C 36.972656 -12.550781 35.351562 -9.898438 33.25 -7.484375 C 31.15625 -5.066406 28.660156 -3.109375 25.765625 -1.609375 C 22.878906 -0.109375 19.679688 0.640625 16.171875 0.640625 Z M 44.234375 0 L 35.1875 0 L 35.1875 -7.1875 C 36.34375 -5.09375 37.722656 -3.539062 39.328125 -2.53125 C 40.929688 -1.53125 42.566406 -1.03125 44.234375 -1.03125 Z M 44.234375 0 "/></g></g></g><g fill="#b0975f" fill-opacity="1"><g transform="translate(192.853212, 265.390075)"><g><path d="M 2.25 0 L 2.25 -1.671875 L 8.671875 -0.96875 L 8.671875 -35.3125 C 8.671875 -36.59375 8.457031 -37.539062 8.03125 -38.15625 C 7.601562 -38.78125 6.875 -39.09375 5.84375 -39.09375 C 5.332031 -39.09375 4.722656 -39.039062 4.015625 -38.9375 C 3.304688 -38.832031 2.71875 -38.671875 2.25 -38.453125 L 2.25 -40.125 L 13.15625 -40.125 L 13.15625 -4.8125 C 13.15625 -3.53125 13.367188 -2.578125 13.796875 -1.953125 C 14.234375 -1.335938 14.960938 -1.03125 15.984375 -1.03125 C 16.492188 -1.03125 17.113281 -1.082031 17.84375 -1.1875 C 18.570312 -1.289062 19.148438 -1.453125 19.578125 -1.671875 L 19.578125 0 Z M 15.40625 -32.8125 L 14.515625 -33.640625 C 15.328125 -34.535156 16.394531 -35.539062 17.71875 -36.65625 C 19.039062 -37.769531 20.71875 -38.734375 22.75 -39.546875 C 24.789062 -40.359375 27.242188 -40.765625 30.109375 -40.765625 C 31.304688 -40.765625 32.429688 -40.710938 33.484375 -40.609375 C 34.535156 -40.503906 35.390625 -40.394531 36.046875 -40.28125 C 36.710938 -40.175781 37.046875 -40.125 37.046875 -40.125 L 37.046875 -32.09375 C 36.785156 -32.613281 36.257812 -33.320312 35.46875 -34.21875 C 34.675781 -35.113281 33.59375 -35.925781 32.21875 -36.65625 C 30.851562 -37.382812 29.1875 -37.75 27.21875 -37.75 C 24.863281 -37.75 22.9375 -37.46875 21.4375 -36.90625 C 19.945312 -36.351562 18.738281 -35.691406 17.8125 -34.921875 C 16.894531 -34.148438 16.09375 -33.445312 15.40625 -32.8125 Z M 15.40625 -32.8125 "/></g></g></g><g fill="#b0975f" fill-opacity="1"><g transform="translate(227.460739, 265.390075)"><g><path d="M 16.171875 0.640625 C 13.910156 0.640625 11.816406 0.191406 9.890625 -0.703125 C 7.960938 -1.597656 6.421875 -2.96875 5.265625 -4.8125 C 4.109375 -6.65625 3.53125 -9.007812 3.53125 -11.875 C 3.53125 -15.34375 4.40625 -18.367188 6.15625 -20.953125 C 7.914062 -23.546875 10.3125 -25.554688 13.34375 -26.984375 C 16.382812 -28.421875 19.832031 -29.140625 23.6875 -29.140625 C 25.101562 -29.140625 26.523438 -29.03125 27.953125 -28.8125 C 29.390625 -28.601562 30.878906 -28.160156 32.421875 -27.484375 L 31.78125 -26.453125 C 30.707031 -27.046875 29.460938 -27.472656 28.046875 -27.734375 C 26.640625 -27.992188 25.316406 -28.125 24.078125 -28.125 C 21.035156 -28.125 18.328125 -27.40625 15.953125 -25.96875 C 13.578125 -24.53125 11.703125 -22.613281 10.328125 -20.21875 C 8.960938 -17.820312 8.28125 -15.210938 8.28125 -12.390625 C 8.28125 -9.910156 8.828125 -7.878906 9.921875 -6.296875 C 11.015625 -4.710938 12.46875 -3.546875 14.28125 -2.796875 C 16.101562 -2.046875 18.0625 -1.671875 20.15625 -1.671875 C 22.851562 -1.671875 25.15625 -2.300781 27.0625 -3.5625 C 28.96875 -4.820312 30.519531 -6.507812 31.71875 -8.625 C 32.914062 -10.75 33.78125 -13.125 34.3125 -15.75 C 34.851562 -18.382812 35.125 -21.050781 35.125 -23.75 C 35.125 -25.632812 34.875 -27.519531 34.375 -29.40625 C 33.882812 -31.289062 33.113281 -33.015625 32.0625 -34.578125 C 31.019531 -36.140625 29.679688 -37.390625 28.046875 -38.328125 C 26.421875 -39.265625 24.476562 -39.734375 22.21875 -39.734375 C 20.207031 -39.734375 18.351562 -39.410156 16.65625 -38.765625 C 14.96875 -38.128906 13.4375 -37.316406 12.0625 -36.328125 C 10.695312 -35.347656 9.5 -34.320312 8.46875 -33.25 C 7.445312 -32.1875 6.59375 -31.25 5.90625 -30.4375 L 5.90625 -36.71875 C 6.71875 -37.28125 7.90625 -37.867188 9.46875 -38.484375 C 11.03125 -39.109375 12.878906 -39.644531 15.015625 -40.09375 C 17.160156 -40.539062 19.429688 -40.765625 21.828125 -40.765625 C 25.335938 -40.765625 28.441406 -40.144531 31.140625 -38.90625 C 33.835938 -37.664062 35.957031 -35.800781 37.5 -33.3125 C 39.039062 -30.832031 39.8125 -27.734375 39.8125 -24.015625 C 39.8125 -21.191406 39.242188 -18.332031 38.109375 -15.4375 C 36.972656 -12.550781 35.351562 -9.898438 33.25 -7.484375 C 31.15625 -5.066406 28.660156 -3.109375 25.765625 -1.609375 C 22.878906 -0.109375 19.679688 0.640625 16.171875 0.640625 Z M 44.234375 0 L 35.1875 0 L 35.1875 -7.1875 C 36.34375 -5.09375 37.722656 -3.539062 39.328125 -2.53125 C 40.929688 -1.53125 42.566406 -1.03125 44.234375 -1.03125 Z M 44.234375 0 "/></g></g></g><g clip-path="url(#5f0324e741)"><path fill="#cfab5c" d="M 202.980469 246.261719 C 196.332031 247.484375 195.339844 248.476562 194.113281 255.125 C 192.890625 248.476562 191.898438 247.484375 185.25 246.261719 C 191.898438 245.039062 192.890625 244.046875 194.113281 237.398438 C 195.339844 244.046875 196.332031 245.039062 202.980469 246.261719 Z M 202.980469 246.261719 " fill-opacity="1" fill-rule="nonzero"/></g><g fill="#ffffff" fill-opacity="1"><g transform="translate(114.153367, 289.701425)"><g><path d="M 1.515625 -0.6875 C 1.515625 -0.53125 1.53125 -0.414062 1.5625 -0.34375 C 1.59375 -0.28125 1.648438 -0.234375 1.734375 -0.203125 C 1.828125 -0.179688 1.972656 -0.171875 2.171875 -0.171875 L 3.0625 -0.171875 C 3.363281 -0.171875 3.609375 -0.265625 3.796875 -0.453125 C 3.984375 -0.648438 4.109375 -0.914062 4.171875 -1.25 C 4.171875 -1.269531 4.179688 -1.273438 4.203125 -1.265625 C 4.234375 -1.265625 4.25 -1.253906 4.25 -1.234375 C 4.207031 -0.785156 4.1875 -0.414062 4.1875 -0.125 C 4.1875 -0.0820312 4.175781 -0.0507812 4.15625 -0.03125 C 4.144531 -0.0078125 4.113281 0 4.0625 0 L 0.28125 0 C 0.269531 0 0.265625 -0.015625 0.265625 -0.046875 C 0.265625 -0.078125 0.269531 -0.09375 0.28125 -0.09375 C 0.488281 -0.09375 0.640625 -0.109375 0.734375 -0.140625 C 0.828125 -0.171875 0.890625 -0.222656 0.921875 -0.296875 C 0.960938 -0.378906 0.984375 -0.5 0.984375 -0.65625 L 0.984375 -4.453125 C 0.984375 -4.609375 0.960938 -4.722656 0.921875 -4.796875 C 0.890625 -4.878906 0.828125 -4.9375 0.734375 -4.96875 C 0.640625 -5 0.488281 -5.015625 0.28125 -5.015625 C 0.269531 -5.015625 0.265625 -5.03125 0.265625 -5.0625 C 0.265625 -5.09375 0.269531 -5.109375 0.28125 -5.109375 L 0.6875 -5.09375 C 0.914062 -5.082031 1.097656 -5.078125 1.234375 -5.078125 C 1.390625 -5.078125 1.582031 -5.082031 1.8125 -5.09375 L 2.203125 -5.109375 C 2.222656 -5.109375 2.234375 -5.09375 2.234375 -5.0625 C 2.234375 -5.03125 2.222656 -5.015625 2.203125 -5.015625 C 2.003906 -5.015625 1.859375 -5 1.765625 -4.96875 C 1.671875 -4.9375 1.601562 -4.878906 1.5625 -4.796875 C 1.53125 -4.722656 1.515625 -4.601562 1.515625 -4.4375 Z M 1.515625 -0.6875 "/></g></g></g><g fill="#ffffff" fill-opacity="1"><g transform="translate(121.189492, 289.701425)"><g><path d="M 4.671875 -4.203125 C 4.671875 -4.742188 4.4375 -5.015625 3.96875 -5.015625 C 3.945312 -5.015625 3.9375 -5.03125 3.9375 -5.0625 C 3.9375 -5.09375 3.945312 -5.109375 3.96875 -5.109375 L 4.3125 -5.09375 C 4.507812 -5.082031 4.664062 -5.078125 4.78125 -5.078125 C 4.875 -5.078125 5.007812 -5.082031 5.1875 -5.09375 L 5.53125 -5.109375 C 5.539062 -5.109375 5.546875 -5.09375 5.546875 -5.0625 C 5.546875 -5.03125 5.539062 -5.015625 5.53125 -5.015625 C 5.09375 -5.015625 4.875 -4.742188 4.875 -4.203125 L 4.875 -1.890625 C 4.875 -1.265625 4.695312 -0.773438 4.34375 -0.421875 C 4 -0.0664062 3.53125 0.109375 2.9375 0.109375 C 2.539062 0.109375 2.191406 0.03125 1.890625 -0.125 C 1.585938 -0.289062 1.351562 -0.515625 1.1875 -0.796875 C 1.019531 -1.085938 0.9375 -1.429688 0.9375 -1.828125 L 0.9375 -4.453125 C 0.9375 -4.609375 0.914062 -4.722656 0.875 -4.796875 C 0.84375 -4.878906 0.78125 -4.9375 0.6875 -4.96875 C 0.59375 -5 0.441406 -5.015625 0.234375 -5.015625 C 0.222656 -5.015625 0.21875 -5.03125 0.21875 -5.0625 C 0.21875 -5.09375 0.222656 -5.109375 0.234375 -5.109375 L 0.640625 -5.09375 C 0.867188 -5.082031 1.050781 -5.078125 1.1875 -5.078125 C 1.34375 -5.078125 1.535156 -5.082031 1.765625 -5.09375 L 2.15625 -5.109375 C 2.175781 -5.109375 2.1875 -5.09375 2.1875 -5.0625 C 2.1875 -5.03125 2.175781 -5.015625 2.15625 -5.015625 C 1.957031 -5.015625 1.804688 -4.992188 1.703125 -4.953125 C 1.609375 -4.921875 1.546875 -4.863281 1.515625 -4.78125 C 1.484375 -4.707031 1.46875 -4.585938 1.46875 -4.421875 L 1.46875 -2.109375 C 1.46875 -1.472656 1.613281 -0.984375 1.90625 -0.640625 C 2.195312 -0.304688 2.601562 -0.140625 3.125 -0.140625 C 3.613281 -0.140625 3.992188 -0.289062 4.265625 -0.59375 C 4.535156 -0.90625 4.671875 -1.332031 4.671875 -1.875 Z M 4.671875 -4.203125 "/></g></g></g><g fill="#ffffff" fill-opacity="1"><g transform="translate(129.574005, 289.701425)"><g><path d="M 5.1875 -0.09375 C 5.195312 -0.09375 5.203125 -0.078125 5.203125 -0.046875 C 5.203125 -0.015625 5.195312 0 5.1875 0 C 5.050781 0 4.941406 -0.00390625 4.859375 -0.015625 L 3.78125 -0.015625 C 3.675781 -0.00390625 3.539062 0 3.375 0 C 3.363281 0 3.359375 -0.015625 3.359375 -0.046875 C 3.359375 -0.078125 3.363281 -0.09375 3.375 -0.09375 C 3.519531 -0.09375 3.625 -0.101562 3.6875 -0.125 C 3.757812 -0.144531 3.796875 -0.179688 3.796875 -0.234375 C 3.796875 -0.285156 3.769531 -0.347656 3.71875 -0.421875 L 2.46875 -2.296875 L 1.4375 -0.828125 C 1.300781 -0.648438 1.234375 -0.503906 1.234375 -0.390625 C 1.234375 -0.191406 1.394531 -0.09375 1.71875 -0.09375 C 1.738281 -0.09375 1.75 -0.078125 1.75 -0.046875 C 1.75 -0.015625 1.738281 0 1.71875 0 C 1.5625 0 1.4375 -0.00390625 1.34375 -0.015625 L 0.4375 -0.015625 C 0.375 -0.00390625 0.273438 0 0.140625 0 C 0.117188 0 0.109375 -0.015625 0.109375 -0.046875 C 0.109375 -0.078125 0.117188 -0.09375 0.140625 -0.09375 C 0.316406 -0.09375 0.5 -0.15625 0.6875 -0.28125 C 0.882812 -0.40625 1.070312 -0.59375 1.25 -0.84375 L 2.40625 -2.421875 L 1.09375 -4.40625 C 0.9375 -4.625 0.789062 -4.78125 0.65625 -4.875 C 0.519531 -4.96875 0.359375 -5.015625 0.171875 -5.015625 C 0.160156 -5.015625 0.15625 -5.03125 0.15625 -5.0625 C 0.15625 -5.09375 0.160156 -5.109375 0.171875 -5.109375 L 0.484375 -5.09375 C 0.617188 -5.082031 0.722656 -5.078125 0.796875 -5.078125 C 0.984375 -5.078125 1.207031 -5.082031 1.46875 -5.09375 L 1.890625 -5.109375 C 1.898438 -5.109375 1.90625 -5.09375 1.90625 -5.0625 C 1.90625 -5.03125 1.898438 -5.015625 1.890625 -5.015625 C 1.742188 -5.015625 1.632812 -5 1.5625 -4.96875 C 1.5 -4.945312 1.46875 -4.910156 1.46875 -4.859375 C 1.46875 -4.816406 1.492188 -4.757812 1.546875 -4.6875 L 2.75 -2.859375 L 3.703125 -4.21875 C 3.859375 -4.425781 3.9375 -4.59375 3.9375 -4.71875 C 3.9375 -4.914062 3.78125 -5.015625 3.46875 -5.015625 C 3.457031 -5.015625 3.453125 -5.03125 3.453125 -5.0625 C 3.453125 -5.09375 3.457031 -5.109375 3.46875 -5.109375 L 3.84375 -5.09375 C 4.050781 -5.082031 4.238281 -5.078125 4.40625 -5.078125 C 4.5 -5.078125 4.613281 -5.082031 4.75 -5.09375 L 5.046875 -5.109375 C 5.066406 -5.109375 5.078125 -5.09375 5.078125 -5.0625 C 5.078125 -5.03125 5.066406 -5.015625 5.046875 -5.015625 C 4.867188 -5.015625 4.679688 -4.941406 4.484375 -4.796875 C 4.285156 -4.660156 4.085938 -4.460938 3.890625 -4.203125 L 2.828125 -2.734375 L 4.1875 -0.671875 C 4.332031 -0.460938 4.476562 -0.3125 4.625 -0.21875 C 4.78125 -0.132812 4.96875 -0.09375 5.1875 -0.09375 Z M 5.1875 -0.09375 "/></g></g></g><g fill="#ffffff" fill-opacity="1"><g transform="translate(137.582603, 289.701425)"><g><path d="M 4.671875 -4.203125 C 4.671875 -4.742188 4.4375 -5.015625 3.96875 -5.015625 C 3.945312 -5.015625 3.9375 -5.03125 3.9375 -5.0625 C 3.9375 -5.09375 3.945312 -5.109375 3.96875 -5.109375 L 4.3125 -5.09375 C 4.507812 -5.082031 4.664062 -5.078125 4.78125 -5.078125 C 4.875 -5.078125 5.007812 -5.082031 5.1875 -5.09375 L 5.53125 -5.109375 C 5.539062 -5.109375 5.546875 -5.09375 5.546875 -5.0625 C 5.546875 -5.03125 5.539062 -5.015625 5.53125 -5.015625 C 5.09375 -5.015625 4.875 -4.742188 4.875 -4.203125 L 4.875 -1.890625 C 4.875 -1.265625 4.695312 -0.773438 4.34375 -0.421875 C 4 -0.0664062 3.53125 0.109375 2.9375 0.109375 C 2.539062 0.109375 2.191406 0.03125 1.890625 -0.125 C 1.585938 -0.289062 1.351562 -0.515625 1.1875 -0.796875 C 1.019531 -1.085938 0.9375 -1.429688 0.9375 -1.828125 L 0.9375 -4.453125 C 0.9375 -4.609375 0.914062 -4.722656 0.875 -4.796875 C 0.84375 -4.878906 0.78125 -4.9375 0.6875 -4.96875 C 0.59375 -5 0.441406 -5.015625 0.234375 -5.015625 C 0.222656 -5.015625 0.21875 -5.03125 0.21875 -5.0625 C 0.21875 -5.09375 0.222656 -5.109375 0.234375 -5.109375 L 0.640625 -5.09375 C 0.867188 -5.082031 1.050781 -5.078125 1.1875 -5.078125 C 1.34375 -5.078125 1.535156 -5.082031 1.765625 -5.09375 L 2.15625 -5.109375 C 2.175781 -5.109375 2.1875 -5.09375 2.1875 -5.0625 C 2.1875 -5.03125 2.175781 -5.015625 2.15625 -5.015625 C 1.957031 -5.015625 1.804688 -4.992188 1.703125 -4.953125 C 1.609375 -4.921875 1.546875 -4.863281 1.515625 -4.78125 C 1.484375 -4.707031 1.46875 -4.585938 1.46875 -4.421875 L 1.46875 -2.109375 C 1.46875 -1.472656 1.613281 -0.984375 1.90625 -0.640625 C 2.195312 -0.304688 2.601562 -0.140625 3.125 -0.140625 C 3.613281 -0.140625 3.992188 -0.289062 4.265625 -0.59375 C 4.535156 -0.90625 4.671875 -1.332031 4.671875 -1.875 Z M 4.671875 -4.203125 "/></g></g></g><g fill="#ffffff" fill-opacity="1"><g transform="translate(145.967116, 289.701425)"><g><path d="M 5.578125 -0.09375 C 5.585938 -0.09375 5.59375 -0.078125 5.59375 -0.046875 C 5.59375 -0.015625 5.585938 0 5.578125 0 L 4.53125 0 C 4.394531 0 4.132812 -0.222656 3.75 -0.671875 C 3.375 -1.128906 2.929688 -1.753906 2.421875 -2.546875 C 2.273438 -2.515625 2.125 -2.5 1.96875 -2.5 C 1.925781 -2.5 1.800781 -2.503906 1.59375 -2.515625 L 1.59375 -0.65625 C 1.59375 -0.488281 1.609375 -0.367188 1.640625 -0.296875 C 1.671875 -0.222656 1.734375 -0.171875 1.828125 -0.140625 C 1.929688 -0.109375 2.082031 -0.09375 2.28125 -0.09375 C 2.300781 -0.09375 2.3125 -0.078125 2.3125 -0.046875 C 2.3125 -0.015625 2.300781 0 2.28125 0 C 2.113281 0 1.984375 -0.00390625 1.890625 -0.015625 L 0.765625 -0.015625 C 0.671875 -0.00390625 0.53125 0 0.34375 0 C 0.332031 0 0.328125 -0.015625 0.328125 -0.046875 C 0.328125 -0.078125 0.332031 -0.09375 0.34375 -0.09375 C 0.550781 -0.09375 0.703125 -0.109375 0.796875 -0.140625 C 0.898438 -0.171875 0.96875 -0.222656 1 -0.296875 C 1.039062 -0.378906 1.0625 -0.5 1.0625 -0.65625 L 1.0625 -4.453125 C 1.0625 -4.609375 1.046875 -4.722656 1.015625 -4.796875 C 0.984375 -4.878906 0.914062 -4.9375 0.8125 -4.96875 C 0.71875 -5 0.570312 -5.015625 0.375 -5.015625 C 0.351562 -5.015625 0.34375 -5.03125 0.34375 -5.0625 C 0.34375 -5.09375 0.351562 -5.109375 0.375 -5.109375 L 0.765625 -5.09375 C 0.992188 -5.082031 1.179688 -5.078125 1.328125 -5.078125 C 1.441406 -5.078125 1.550781 -5.078125 1.65625 -5.078125 C 1.757812 -5.085938 1.847656 -5.097656 1.921875 -5.109375 C 2.117188 -5.117188 2.300781 -5.125 2.46875 -5.125 C 2.894531 -5.125 3.222656 -5.023438 3.453125 -4.828125 C 3.691406 -4.640625 3.8125 -4.378906 3.8125 -4.046875 C 3.8125 -3.753906 3.722656 -3.488281 3.546875 -3.25 C 3.378906 -3.019531 3.15625 -2.835938 2.875 -2.703125 C 3.332031 -2.035156 3.71875 -1.515625 4.03125 -1.140625 C 4.34375 -0.773438 4.617188 -0.507812 4.859375 -0.34375 C 5.109375 -0.175781 5.347656 -0.09375 5.578125 -0.09375 Z M 1.59375 -2.71875 C 1.726562 -2.695312 1.890625 -2.6875 2.078125 -2.6875 C 2.503906 -2.6875 2.804688 -2.773438 2.984375 -2.953125 C 3.171875 -3.140625 3.265625 -3.425781 3.265625 -3.8125 C 3.265625 -4.238281 3.171875 -4.546875 2.984375 -4.734375 C 2.796875 -4.921875 2.519531 -5.015625 2.15625 -5.015625 C 1.945312 -5.015625 1.800781 -4.972656 1.71875 -4.890625 C 1.632812 -4.816406 1.59375 -4.660156 1.59375 -4.421875 Z M 1.59375 -2.71875 "/></g></g></g><g fill="#ffffff" fill-opacity="1"><g transform="translate(154.147327, 289.701425)"><g><path d="M 5.015625 -5.109375 C 5.023438 -5.109375 5.03125 -5.09375 5.03125 -5.0625 C 5.03125 -5.03125 5.023438 -5.015625 5.015625 -5.015625 C 4.816406 -5.015625 4.617188 -4.941406 4.421875 -4.796875 C 4.222656 -4.648438 4.039062 -4.453125 3.875 -4.203125 L 2.78125 -2.515625 L 2.78125 -0.65625 C 2.78125 -0.488281 2.796875 -0.367188 2.828125 -0.296875 C 2.867188 -0.222656 2.9375 -0.171875 3.03125 -0.140625 C 3.125 -0.109375 3.273438 -0.09375 3.484375 -0.09375 C 3.492188 -0.09375 3.5 -0.078125 3.5 -0.046875 C 3.5 -0.015625 3.492188 0 3.484375 0 C 3.316406 0 3.1875 -0.00390625 3.09375 -0.015625 L 1.953125 -0.015625 C 1.859375 -0.00390625 1.722656 0 1.546875 0 C 1.535156 0 1.53125 -0.015625 1.53125 -0.046875 C 1.53125 -0.078125 1.535156 -0.09375 1.546875 -0.09375 C 1.753906 -0.09375 1.90625 -0.109375 2 -0.140625 C 2.101562 -0.171875 2.171875 -0.222656 2.203125 -0.296875 C 2.234375 -0.378906 2.25 -0.5 2.25 -0.65625 L 2.25 -2.390625 L 0.90625 -4.375 C 0.75 -4.613281 0.601562 -4.78125 0.46875 -4.875 C 0.332031 -4.96875 0.171875 -5.015625 -0.015625 -5.015625 C -0.0234375 -5.015625 -0.03125 -5.03125 -0.03125 -5.0625 C -0.03125 -5.09375 -0.0234375 -5.109375 -0.015625 -5.109375 C 0.0546875 -5.109375 0.15625 -5.101562 0.28125 -5.09375 L 0.578125 -5.078125 C 0.753906 -5.078125 0.988281 -5.082031 1.28125 -5.09375 L 1.71875 -5.109375 C 1.726562 -5.109375 1.734375 -5.09375 1.734375 -5.0625 C 1.734375 -5.03125 1.726562 -5.015625 1.71875 -5.015625 C 1.4375 -5.015625 1.296875 -4.957031 1.296875 -4.84375 C 1.296875 -4.78125 1.320312 -4.710938 1.375 -4.640625 L 2.6875 -2.703125 L 3.6875 -4.234375 C 3.800781 -4.421875 3.859375 -4.582031 3.859375 -4.71875 C 3.859375 -4.914062 3.710938 -5.015625 3.421875 -5.015625 C 3.410156 -5.015625 3.40625 -5.03125 3.40625 -5.0625 C 3.40625 -5.09375 3.410156 -5.109375 3.421875 -5.109375 L 3.8125 -5.09375 C 4.019531 -5.082031 4.207031 -5.078125 4.375 -5.078125 C 4.46875 -5.078125 4.582031 -5.082031 4.71875 -5.09375 Z M 5.015625 -5.109375 "/></g></g></g><g fill="#ffffff" fill-opacity="1"><g transform="translate(161.804524, 289.701425)"><g/></g></g><g fill="#ffffff" fill-opacity="1"><g transform="translate(166.397198, 289.701425)"><g><path d="M 3.71875 -4.03125 C 3.71875 -4.007812 3.703125 -4 3.671875 -4 C 3.648438 -4 3.640625 -4.003906 3.640625 -4.015625 C 3.617188 -4.304688 3.53125 -4.53125 3.375 -4.6875 C 3.21875 -4.851562 3.007812 -4.9375 2.75 -4.9375 L 2.25 -4.9375 C 2.0625 -4.9375 1.921875 -4.921875 1.828125 -4.890625 C 1.734375 -4.867188 1.664062 -4.820312 1.625 -4.75 C 1.59375 -4.675781 1.578125 -4.570312 1.578125 -4.4375 L 1.578125 -2.640625 L 2.40625 -2.640625 C 2.695312 -2.640625 2.90625 -2.6875 3.03125 -2.78125 C 3.15625 -2.875 3.21875 -3.019531 3.21875 -3.21875 C 3.21875 -3.226562 3.234375 -3.234375 3.265625 -3.234375 C 3.296875 -3.234375 3.3125 -3.226562 3.3125 -3.21875 L 3.296875 -2.5625 C 3.296875 -2.40625 3.300781 -2.285156 3.3125 -2.203125 L 3.3125 -1.8125 C 3.3125 -1.800781 3.296875 -1.796875 3.265625 -1.796875 C 3.234375 -1.796875 3.21875 -1.800781 3.21875 -1.8125 C 3.21875 -2.050781 3.148438 -2.21875 3.015625 -2.3125 C 2.890625 -2.414062 2.679688 -2.46875 2.390625 -2.46875 L 1.578125 -2.46875 L 1.578125 -0.6875 C 1.578125 -0.519531 1.597656 -0.394531 1.640625 -0.3125 C 1.691406 -0.238281 1.785156 -0.179688 1.921875 -0.140625 C 2.066406 -0.109375 2.285156 -0.09375 2.578125 -0.09375 C 2.585938 -0.09375 2.59375 -0.078125 2.59375 -0.046875 C 2.59375 -0.015625 2.585938 0 2.578125 0 C 2.347656 0 2.171875 -0.00390625 2.046875 -0.015625 L 0.765625 -0.015625 C 0.660156 -0.00390625 0.519531 0 0.34375 0 C 0.332031 0 0.328125 -0.015625 0.328125 -0.046875 C 0.328125 -0.078125 0.332031 -0.09375 0.34375 -0.09375 C 0.550781 -0.09375 0.703125 -0.109375 0.796875 -0.140625 C 0.898438 -0.171875 0.96875 -0.222656 1 -0.296875 C 1.03125 -0.378906 1.046875 -0.5 1.046875 -0.65625 L 1.046875 -4.453125 C 1.046875 -4.609375 1.03125 -4.722656 1 -4.796875 C 0.96875 -4.878906 0.898438 -4.9375 0.796875 -4.96875 C 0.703125 -5 0.550781 -5.015625 0.34375 -5.015625 C 0.332031 -5.015625 0.328125 -5.03125 0.328125 -5.0625 C 0.328125 -5.09375 0.332031 -5.109375 0.34375 -5.109375 L 3.640625 -5.109375 C 3.679688 -5.109375 3.703125 -5.082031 3.703125 -5.03125 Z M 3.71875 -4.03125 "/></g></g></g><g fill="#ffffff" fill-opacity="1"><g transform="translate(173.237196, 289.701425)"><g><path d="M 5.71875 -0.09375 C 5.738281 -0.09375 5.75 -0.078125 5.75 -0.046875 C 5.75 -0.015625 5.738281 0 5.71875 0 C 5.613281 0 5.453125 -0.00390625 5.234375 -0.015625 C 5.015625 -0.0234375 4.851562 -0.03125 4.75 -0.03125 C 4.632812 -0.03125 4.484375 -0.0234375 4.296875 -0.015625 C 4.117188 -0.00390625 3.984375 0 3.890625 0 C 3.867188 0 3.859375 -0.015625 3.859375 -0.046875 C 3.859375 -0.078125 3.867188 -0.09375 3.890625 -0.09375 C 4.097656 -0.09375 4.25 -0.113281 4.34375 -0.15625 C 4.4375 -0.195312 4.484375 -0.257812 4.484375 -0.34375 C 4.484375 -0.425781 4.445312 -0.546875 4.375 -0.703125 L 3.640625 -2.25 L 1.703125 -2.25 L 1.1875 -1.03125 C 1.113281 -0.851562 1.078125 -0.707031 1.078125 -0.59375 C 1.078125 -0.414062 1.140625 -0.285156 1.265625 -0.203125 C 1.398438 -0.128906 1.601562 -0.09375 1.875 -0.09375 C 1.894531 -0.09375 1.90625 -0.078125 1.90625 -0.046875 C 1.90625 -0.015625 1.894531 0 1.875 0 C 1.769531 0 1.628906 -0.00390625 1.453125 -0.015625 C 1.242188 -0.0234375 1.0625 -0.03125 0.90625 -0.03125 C 0.757812 -0.03125 0.597656 -0.0234375 0.421875 -0.015625 C 0.253906 -0.00390625 0.117188 0 0.015625 0 C -0.015625 0 -0.03125 -0.015625 -0.03125 -0.046875 C -0.03125 -0.078125 -0.015625 -0.09375 0.015625 -0.09375 C 0.160156 -0.09375 0.285156 -0.117188 0.390625 -0.171875 C 0.503906 -0.234375 0.609375 -0.335938 0.703125 -0.484375 C 0.796875 -0.628906 0.898438 -0.835938 1.015625 -1.109375 L 2.734375 -5.1875 C 2.742188 -5.195312 2.757812 -5.203125 2.78125 -5.203125 C 2.8125 -5.203125 2.832031 -5.195312 2.84375 -5.1875 L 4.765625 -1.125 C 4.953125 -0.71875 5.109375 -0.441406 5.234375 -0.296875 C 5.367188 -0.160156 5.53125 -0.09375 5.71875 -0.09375 Z M 1.765625 -2.40625 L 3.578125 -2.40625 L 2.609375 -4.421875 Z M 1.765625 -2.40625 "/></g></g></g><g fill="#ffffff" fill-opacity="1"><g transform="translate(181.654398, 289.701425)"><g><path d="M 1.1875 -4.15625 C 1.1875 -3.9375 1.238281 -3.75 1.34375 -3.59375 C 1.445312 -3.4375 1.570312 -3.304688 1.71875 -3.203125 C 1.863281 -3.097656 2.070312 -2.960938 2.34375 -2.796875 C 2.625 -2.628906 2.84375 -2.488281 3 -2.375 C 3.15625 -2.257812 3.289062 -2.113281 3.40625 -1.9375 C 3.519531 -1.757812 3.578125 -1.546875 3.578125 -1.296875 C 3.578125 -1.035156 3.507812 -0.796875 3.375 -0.578125 C 3.238281 -0.367188 3.046875 -0.203125 2.796875 -0.078125 C 2.546875 0.0351562 2.242188 0.09375 1.890625 0.09375 C 1.472656 0.09375 1.085938 0 0.734375 -0.1875 C 0.703125 -0.207031 0.679688 -0.226562 0.671875 -0.25 C 0.671875 -0.269531 0.664062 -0.300781 0.65625 -0.34375 L 0.5625 -1.453125 C 0.550781 -1.472656 0.5625 -1.484375 0.59375 -1.484375 C 0.625 -1.492188 0.640625 -1.488281 0.640625 -1.46875 C 0.734375 -1.070312 0.894531 -0.734375 1.125 -0.453125 C 1.363281 -0.171875 1.679688 -0.03125 2.078125 -0.03125 C 2.347656 -0.03125 2.578125 -0.101562 2.765625 -0.25 C 2.953125 -0.40625 3.046875 -0.644531 3.046875 -0.96875 C 3.046875 -1.21875 2.988281 -1.429688 2.875 -1.609375 C 2.769531 -1.785156 2.640625 -1.929688 2.484375 -2.046875 C 2.328125 -2.171875 2.117188 -2.3125 1.859375 -2.46875 C 1.597656 -2.625 1.390625 -2.757812 1.234375 -2.875 C 1.085938 -2.988281 0.960938 -3.132812 0.859375 -3.3125 C 0.753906 -3.488281 0.703125 -3.691406 0.703125 -3.921875 C 0.703125 -4.191406 0.773438 -4.421875 0.921875 -4.609375 C 1.066406 -4.804688 1.253906 -4.953125 1.484375 -5.046875 C 1.710938 -5.148438 1.957031 -5.203125 2.21875 -5.203125 C 2.539062 -5.203125 2.859375 -5.132812 3.171875 -5 C 3.253906 -4.96875 3.296875 -4.921875 3.296875 -4.859375 L 3.359375 -3.921875 C 3.359375 -3.898438 3.34375 -3.890625 3.3125 -3.890625 C 3.289062 -3.890625 3.273438 -3.898438 3.265625 -3.921875 C 3.222656 -4.203125 3.101562 -4.460938 2.90625 -4.703125 C 2.71875 -4.953125 2.445312 -5.078125 2.09375 -5.078125 C 1.789062 -5.078125 1.5625 -4.988281 1.40625 -4.8125 C 1.257812 -4.632812 1.1875 -4.414062 1.1875 -4.15625 Z M 1.1875 -4.15625 "/></g></g></g><g fill="#ffffff" fill-opacity="1"><g transform="translate(188.347298, 289.701425)"><g><path d="M 5.90625 -0.09375 C 5.914062 -0.09375 5.921875 -0.078125 5.921875 -0.046875 C 5.921875 -0.015625 5.914062 0 5.90625 0 C 5.726562 0 5.59375 -0.00390625 5.5 -0.015625 L 4.328125 -0.015625 C 4.234375 -0.00390625 4.109375 0 3.953125 0 C 3.929688 0 3.921875 -0.015625 3.921875 -0.046875 C 3.921875 -0.078125 3.929688 -0.09375 3.953125 -0.09375 C 4.160156 -0.09375 4.3125 -0.109375 4.40625 -0.140625 C 4.507812 -0.171875 4.578125 -0.222656 4.609375 -0.296875 C 4.648438 -0.378906 4.671875 -0.5 4.671875 -0.65625 L 4.671875 -2.578125 L 1.53125 -2.578125 L 1.53125 -0.65625 C 1.53125 -0.5 1.546875 -0.378906 1.578125 -0.296875 C 1.617188 -0.222656 1.6875 -0.171875 1.78125 -0.140625 C 1.875 -0.109375 2.03125 -0.09375 2.25 -0.09375 C 2.257812 -0.09375 2.265625 -0.078125 2.265625 -0.046875 C 2.265625 -0.015625 2.257812 0 2.25 0 C 2.082031 0 1.945312 -0.00390625 1.84375 -0.015625 L 0.6875 -0.015625 C 0.59375 -0.00390625 0.457031 0 0.28125 0 C 0.269531 0 0.265625 -0.015625 0.265625 -0.046875 C 0.265625 -0.078125 0.269531 -0.09375 0.28125 -0.09375 C 0.488281 -0.09375 0.644531 -0.109375 0.75 -0.140625 C 0.851562 -0.171875 0.921875 -0.222656 0.953125 -0.296875 C 0.984375 -0.378906 1 -0.5 1 -0.65625 L 1 -4.453125 C 1 -4.609375 0.984375 -4.722656 0.953125 -4.796875 C 0.921875 -4.878906 0.851562 -4.9375 0.75 -4.96875 C 0.65625 -5 0.503906 -5.015625 0.296875 -5.015625 C 0.285156 -5.015625 0.28125 -5.03125 0.28125 -5.0625 C 0.28125 -5.09375 0.285156 -5.109375 0.296875 -5.109375 L 0.71875 -5.09375 C 0.9375 -5.082031 1.117188 -5.078125 1.265625 -5.078125 C 1.421875 -5.078125 1.617188 -5.082031 1.859375 -5.09375 L 2.25 -5.109375 C 2.257812 -5.109375 2.265625 -5.09375 2.265625 -5.0625 C 2.265625 -5.03125 2.257812 -5.015625 2.25 -5.015625 C 2.039062 -5.015625 1.882812 -4.992188 1.78125 -4.953125 C 1.6875 -4.921875 1.617188 -4.863281 1.578125 -4.78125 C 1.546875 -4.707031 1.53125 -4.585938 1.53125 -4.421875 L 1.53125 -2.75 L 4.671875 -2.75 L 4.671875 -4.421875 C 4.671875 -4.585938 4.648438 -4.707031 4.609375 -4.78125 C 4.578125 -4.863281 4.507812 -4.921875 4.40625 -4.953125 C 4.3125 -4.992188 4.160156 -5.015625 3.953125 -5.015625 C 3.929688 -5.015625 3.921875 -5.03125 3.921875 -5.0625 C 3.921875 -5.09375 3.929688 -5.109375 3.953125 -5.109375 L 4.328125 -5.09375 C 4.566406 -5.082031 4.769531 -5.078125 4.9375 -5.078125 C 5.082031 -5.078125 5.269531 -5.082031 5.5 -5.09375 L 5.90625 -5.109375 C 5.914062 -5.109375 5.921875 -5.09375 5.921875 -5.0625 C 5.921875 -5.03125 5.914062 -5.015625 5.90625 -5.015625 C 5.695312 -5.015625 5.539062 -5 5.4375 -4.96875 C 5.34375 -4.9375 5.273438 -4.878906 5.234375 -4.796875 C 5.203125 -4.722656 5.1875 -4.609375 5.1875 -4.453125 L 5.1875 -0.65625 C 5.1875 -0.5 5.203125 -0.378906 5.234375 -0.296875 C 5.273438 -0.222656 5.34375 -0.171875 5.4375 -0.140625 C 5.539062 -0.109375 5.695312 -0.09375 5.90625 -0.09375 Z M 5.90625 -0.09375 "/></g></g></g><g fill="#ffffff" fill-opacity="1"><g transform="translate(197.230307, 289.701425)"><g><path d="M 1.625 -0.65625 C 1.625 -0.5 1.640625 -0.378906 1.671875 -0.296875 C 1.703125 -0.222656 1.765625 -0.171875 1.859375 -0.140625 C 1.960938 -0.109375 2.117188 -0.09375 2.328125 -0.09375 C 2.335938 -0.09375 2.34375 -0.078125 2.34375 -0.046875 C 2.34375 -0.015625 2.335938 0 2.328125 0 C 2.160156 0 2.023438 -0.00390625 1.921875 -0.015625 L 0.78125 -0.015625 C 0.6875 -0.00390625 0.554688 0 0.390625 0 C 0.367188 0 0.359375 -0.015625 0.359375 -0.046875 C 0.359375 -0.078125 0.367188 -0.09375 0.390625 -0.09375 C 0.585938 -0.09375 0.734375 -0.109375 0.828125 -0.140625 C 0.929688 -0.171875 1 -0.222656 1.03125 -0.296875 C 1.070312 -0.378906 1.09375 -0.5 1.09375 -0.65625 L 1.09375 -4.453125 C 1.09375 -4.609375 1.070312 -4.722656 1.03125 -4.796875 C 1 -4.878906 0.929688 -4.9375 0.828125 -4.96875 C 0.734375 -5 0.585938 -5.015625 0.390625 -5.015625 C 0.367188 -5.015625 0.359375 -5.03125 0.359375 -5.0625 C 0.359375 -5.09375 0.367188 -5.109375 0.390625 -5.109375 L 0.78125 -5.09375 C 1.007812 -5.082031 1.195312 -5.078125 1.34375 -5.078125 C 1.507812 -5.078125 1.707031 -5.082031 1.9375 -5.09375 L 2.328125 -5.109375 C 2.335938 -5.109375 2.34375 -5.09375 2.34375 -5.0625 C 2.34375 -5.03125 2.335938 -5.015625 2.328125 -5.015625 C 2.117188 -5.015625 1.96875 -4.992188 1.875 -4.953125 C 1.78125 -4.921875 1.710938 -4.863281 1.671875 -4.78125 C 1.640625 -4.707031 1.625 -4.585938 1.625 -4.421875 Z M 1.625 -0.65625 "/></g></g></g><g fill="#ffffff" fill-opacity="1"><g transform="translate(202.623845, 289.701425)"><g><path d="M 2.984375 0.09375 C 2.484375 0.09375 2.035156 -0.0195312 1.640625 -0.25 C 1.242188 -0.488281 0.9375 -0.8125 0.71875 -1.21875 C 0.507812 -1.625 0.40625 -2.066406 0.40625 -2.546875 C 0.40625 -3.109375 0.546875 -3.585938 0.828125 -3.984375 C 1.109375 -4.390625 1.46875 -4.691406 1.90625 -4.890625 C 2.351562 -5.097656 2.8125 -5.203125 3.28125 -5.203125 C 3.789062 -5.203125 4.242188 -5.078125 4.640625 -4.828125 C 5.035156 -4.585938 5.335938 -4.269531 5.546875 -3.875 C 5.753906 -3.476562 5.859375 -3.054688 5.859375 -2.609375 C 5.859375 -2.109375 5.726562 -1.648438 5.46875 -1.234375 C 5.207031 -0.828125 4.859375 -0.503906 4.421875 -0.265625 C 3.984375 -0.0234375 3.503906 0.09375 2.984375 0.09375 Z M 3.28125 -0.078125 C 3.644531 -0.078125 3.972656 -0.164062 4.265625 -0.34375 C 4.566406 -0.519531 4.800781 -0.78125 4.96875 -1.125 C 5.144531 -1.476562 5.234375 -1.894531 5.234375 -2.375 C 5.234375 -2.882812 5.140625 -3.335938 4.953125 -3.734375 C 4.765625 -4.140625 4.492188 -4.453125 4.140625 -4.671875 C 3.796875 -4.898438 3.394531 -5.015625 2.9375 -5.015625 C 2.332031 -5.015625 1.859375 -4.816406 1.515625 -4.421875 C 1.179688 -4.035156 1.015625 -3.503906 1.015625 -2.828125 C 1.015625 -2.316406 1.109375 -1.847656 1.296875 -1.421875 C 1.492188 -1.003906 1.765625 -0.675781 2.109375 -0.4375 C 2.453125 -0.195312 2.84375 -0.078125 3.28125 -0.078125 Z M 3.28125 -0.078125 "/></g></g></g><g fill="#ffffff" fill-opacity="1"><g transform="translate(211.564064, 289.701425)"><g><path d="M 5.75 -5.109375 C 5.769531 -5.109375 5.78125 -5.09375 5.78125 -5.0625 C 5.78125 -5.03125 5.769531 -5.015625 5.75 -5.015625 C 5.519531 -5.015625 5.351562 -4.953125 5.25 -4.828125 C 5.144531 -4.703125 5.09375 -4.492188 5.09375 -4.203125 L 5.09375 0.09375 C 5.09375 0.101562 5.078125 0.109375 5.046875 0.109375 C 5.023438 0.117188 5.007812 0.117188 5 0.109375 L 1.234375 -4.4375 L 1.171875 -4.515625 L 1.171875 -0.890625 C 1.171875 -0.609375 1.21875 -0.40625 1.3125 -0.28125 C 1.414062 -0.15625 1.582031 -0.09375 1.8125 -0.09375 C 1.820312 -0.09375 1.828125 -0.078125 1.828125 -0.046875 C 1.828125 -0.015625 1.820312 0 1.8125 0 C 1.675781 0 1.570312 -0.00390625 1.5 -0.015625 L 0.671875 -0.015625 C 0.597656 -0.00390625 0.484375 0 0.328125 0 C 0.316406 0 0.3125 -0.015625 0.3125 -0.046875 C 0.3125 -0.078125 0.316406 -0.09375 0.328125 -0.09375 C 0.566406 -0.09375 0.734375 -0.15625 0.828125 -0.28125 C 0.929688 -0.40625 0.984375 -0.609375 0.984375 -0.890625 L 0.984375 -4.71875 C 0.765625 -4.914062 0.546875 -5.015625 0.328125 -5.015625 C 0.316406 -5.015625 0.3125 -5.03125 0.3125 -5.0625 C 0.3125 -5.09375 0.316406 -5.109375 0.328125 -5.109375 L 0.640625 -5.09375 C 0.703125 -5.09375 0.789062 -5.09375 0.90625 -5.09375 C 1.03125 -5.09375 1.128906 -5.09375 1.203125 -5.09375 C 1.273438 -5.101562 1.332031 -5.109375 1.375 -5.109375 C 1.425781 -5.109375 1.457031 -5.097656 1.46875 -5.078125 C 1.488281 -5.054688 1.519531 -5.015625 1.5625 -4.953125 C 1.632812 -4.859375 1.703125 -4.769531 1.765625 -4.6875 L 4.90625 -0.8125 L 4.90625 -4.203125 C 4.90625 -4.492188 4.859375 -4.703125 4.765625 -4.828125 C 4.671875 -4.953125 4.515625 -5.015625 4.296875 -5.015625 C 4.285156 -5.015625 4.28125 -5.03125 4.28125 -5.0625 C 4.28125 -5.09375 4.285156 -5.109375 4.296875 -5.109375 L 4.609375 -5.09375 C 4.773438 -5.082031 4.910156 -5.078125 5.015625 -5.078125 C 5.109375 -5.078125 5.242188 -5.082031 5.421875 -5.09375 Z M 5.75 -5.109375 "/></g></g></g><g fill="#ffffff" fill-opacity="1"><g transform="translate(220.185572, 289.701425)"><g/></g></g><g fill="#ffffff" fill-opacity="1"><g transform="translate(224.778252, 289.701425)"><g><path d="M 1.1875 -4.15625 C 1.1875 -3.9375 1.238281 -3.75 1.34375 -3.59375 C 1.445312 -3.4375 1.570312 -3.304688 1.71875 -3.203125 C 1.863281 -3.097656 2.070312 -2.960938 2.34375 -2.796875 C 2.625 -2.628906 2.84375 -2.488281 3 -2.375 C 3.15625 -2.257812 3.289062 -2.113281 3.40625 -1.9375 C 3.519531 -1.757812 3.578125 -1.546875 3.578125 -1.296875 C 3.578125 -1.035156 3.507812 -0.796875 3.375 -0.578125 C 3.238281 -0.367188 3.046875 -0.203125 2.796875 -0.078125 C 2.546875 0.0351562 2.242188 0.09375 1.890625 0.09375 C 1.472656 0.09375 1.085938 0 0.734375 -0.1875 C 0.703125 -0.207031 0.679688 -0.226562 0.671875 -0.25 C 0.671875 -0.269531 0.664062 -0.300781 0.65625 -0.34375 L 0.5625 -1.453125 C 0.550781 -1.472656 0.5625 -1.484375 0.59375 -1.484375 C 0.625 -1.492188 0.640625 -1.488281 0.640625 -1.46875 C 0.734375 -1.070312 0.894531 -0.734375 1.125 -0.453125 C 1.363281 -0.171875 1.679688 -0.03125 2.078125 -0.03125 C 2.347656 -0.03125 2.578125 -0.101562 2.765625 -0.25 C 2.953125 -0.40625 3.046875 -0.644531 3.046875 -0.96875 C 3.046875 -1.21875 2.988281 -1.429688 2.875 -1.609375 C 2.769531 -1.785156 2.640625 -1.929688 2.484375 -2.046875 C 2.328125 -2.171875 2.117188 -2.3125 1.859375 -2.46875 C 1.597656 -2.625 1.390625 -2.757812 1.234375 -2.875 C 1.085938 -2.988281 0.960938 -3.132812 0.859375 -3.3125 C 0.753906 -3.488281 0.703125 -3.691406 0.703125 -3.921875 C 0.703125 -4.191406 0.773438 -4.421875 0.921875 -4.609375 C 1.066406 -4.804688 1.253906 -4.953125 1.484375 -5.046875 C 1.710938 -5.148438 1.957031 -5.203125 2.21875 -5.203125 C 2.539062 -5.203125 2.859375 -5.132812 3.171875 -5 C 3.253906 -4.96875 3.296875 -4.921875 3.296875 -4.859375 L 3.359375 -3.921875 C 3.359375 -3.898438 3.34375 -3.890625 3.3125 -3.890625 C 3.289062 -3.890625 3.273438 -3.898438 3.265625 -3.921875 C 3.222656 -4.203125 3.101562 -4.460938 2.90625 -4.703125 C 2.71875 -4.953125 2.445312 -5.078125 2.09375 -5.078125 C 1.789062 -5.078125 1.5625 -4.988281 1.40625 -4.8125 C 1.257812 -4.632812 1.1875 -4.414062 1.1875 -4.15625 Z M 1.1875 -4.15625 "/></g></g></g><g fill="#ffffff" fill-opacity="1"><g transform="translate(231.471157, 289.701425)"><g><path d="M 1.546875 -4.953125 C 1.203125 -4.953125 0.941406 -4.863281 0.765625 -4.6875 C 0.597656 -4.519531 0.476562 -4.226562 0.40625 -3.8125 C 0.40625 -3.800781 0.390625 -3.796875 0.359375 -3.796875 C 0.328125 -3.796875 0.3125 -3.800781 0.3125 -3.8125 C 0.332031 -4.007812 0.351562 -4.265625 0.375 -4.578125 C 0.40625 -4.890625 0.421875 -5.125 0.421875 -5.28125 C 0.421875 -5.3125 0.4375 -5.328125 0.46875 -5.328125 C 0.5 -5.328125 0.515625 -5.3125 0.515625 -5.28125 C 0.515625 -5.164062 0.660156 -5.109375 0.953125 -5.109375 C 1.421875 -5.085938 1.96875 -5.078125 2.59375 -5.078125 C 2.914062 -5.078125 3.257812 -5.082031 3.625 -5.09375 L 4.171875 -5.109375 C 4.367188 -5.109375 4.515625 -5.117188 4.609375 -5.140625 C 4.703125 -5.171875 4.765625 -5.226562 4.796875 -5.3125 C 4.804688 -5.332031 4.820312 -5.34375 4.84375 -5.34375 C 4.875 -5.34375 4.890625 -5.332031 4.890625 -5.3125 C 4.867188 -5.15625 4.847656 -4.914062 4.828125 -4.59375 C 4.816406 -4.269531 4.8125 -4.007812 4.8125 -3.8125 C 4.8125 -3.800781 4.796875 -3.796875 4.765625 -3.796875 C 4.734375 -3.796875 4.71875 -3.800781 4.71875 -3.8125 C 4.695312 -4.238281 4.609375 -4.535156 4.453125 -4.703125 C 4.296875 -4.867188 4.035156 -4.953125 3.671875 -4.953125 C 3.421875 -4.953125 3.242188 -4.941406 3.140625 -4.921875 C 3.035156 -4.898438 2.960938 -4.851562 2.921875 -4.78125 C 2.890625 -4.71875 2.875 -4.597656 2.875 -4.421875 L 2.875 -0.65625 C 2.875 -0.488281 2.890625 -0.367188 2.921875 -0.296875 C 2.960938 -0.222656 3.035156 -0.171875 3.140625 -0.140625 C 3.253906 -0.109375 3.429688 -0.09375 3.671875 -0.09375 C 3.679688 -0.09375 3.6875 -0.078125 3.6875 -0.046875 C 3.6875 -0.015625 3.679688 0 3.671875 0 C 3.492188 0 3.347656 -0.00390625 3.234375 -0.015625 L 1.984375 -0.015625 C 1.878906 -0.00390625 1.726562 0 1.53125 0 C 1.519531 0 1.515625 -0.015625 1.515625 -0.046875 C 1.515625 -0.078125 1.519531 -0.09375 1.53125 -0.09375 C 1.769531 -0.09375 1.941406 -0.109375 2.046875 -0.140625 C 2.160156 -0.171875 2.238281 -0.222656 2.28125 -0.296875 C 2.320312 -0.378906 2.34375 -0.5 2.34375 -0.65625 L 2.34375 -4.453125 C 2.34375 -4.617188 2.320312 -4.734375 2.28125 -4.796875 C 2.238281 -4.867188 2.164062 -4.910156 2.0625 -4.921875 C 1.957031 -4.941406 1.785156 -4.953125 1.546875 -4.953125 Z M 1.546875 -4.953125 "/></g></g></g><g fill="#ffffff" fill-opacity="1"><g transform="translate(239.332661, 289.701425)"><g><path d="M 2.984375 0.09375 C 2.484375 0.09375 2.035156 -0.0195312 1.640625 -0.25 C 1.242188 -0.488281 0.9375 -0.8125 0.71875 -1.21875 C 0.507812 -1.625 0.40625 -2.066406 0.40625 -2.546875 C 0.40625 -3.109375 0.546875 -3.585938 0.828125 -3.984375 C 1.109375 -4.390625 1.46875 -4.691406 1.90625 -4.890625 C 2.351562 -5.097656 2.8125 -5.203125 3.28125 -5.203125 C 3.789062 -5.203125 4.242188 -5.078125 4.640625 -4.828125 C 5.035156 -4.585938 5.335938 -4.269531 5.546875 -3.875 C 5.753906 -3.476562 5.859375 -3.054688 5.859375 -2.609375 C 5.859375 -2.109375 5.726562 -1.648438 5.46875 -1.234375 C 5.207031 -0.828125 4.859375 -0.503906 4.421875 -0.265625 C 3.984375 -0.0234375 3.503906 0.09375 2.984375 0.09375 Z M 3.28125 -0.078125 C 3.644531 -0.078125 3.972656 -0.164062 4.265625 -0.34375 C 4.566406 -0.519531 4.800781 -0.78125 4.96875 -1.125 C 5.144531 -1.476562 5.234375 -1.894531 5.234375 -2.375 C 5.234375 -2.882812 5.140625 -3.335938 4.953125 -3.734375 C 4.765625 -4.140625 4.492188 -4.453125 4.140625 -4.671875 C 3.796875 -4.898438 3.394531 -5.015625 2.9375 -5.015625 C 2.332031 -5.015625 1.859375 -4.816406 1.515625 -4.421875 C 1.179688 -4.035156 1.015625 -3.503906 1.015625 -2.828125 C 1.015625 -2.316406 1.109375 -1.847656 1.296875 -1.421875 C 1.492188 -1.003906 1.765625 -0.675781 2.109375 -0.4375 C 2.453125 -0.195312 2.84375 -0.078125 3.28125 -0.078125 Z M 3.28125 -0.078125 "/></g></g></g><g fill="#ffffff" fill-opacity="1"><g transform="translate(248.272879, 289.701425)"><g><path d="M 5.578125 -0.09375 C 5.585938 -0.09375 5.59375 -0.078125 5.59375 -0.046875 C 5.59375 -0.015625 5.585938 0 5.578125 0 L 4.53125 0 C 4.394531 0 4.132812 -0.222656 3.75 -0.671875 C 3.375 -1.128906 2.929688 -1.753906 2.421875 -2.546875 C 2.273438 -2.515625 2.125 -2.5 1.96875 -2.5 C 1.925781 -2.5 1.800781 -2.503906 1.59375 -2.515625 L 1.59375 -0.65625 C 1.59375 -0.488281 1.609375 -0.367188 1.640625 -0.296875 C 1.671875 -0.222656 1.734375 -0.171875 1.828125 -0.140625 C 1.929688 -0.109375 2.082031 -0.09375 2.28125 -0.09375 C 2.300781 -0.09375 2.3125 -0.078125 2.3125 -0.046875 C 2.3125 -0.015625 2.300781 0 2.28125 0 C 2.113281 0 1.984375 -0.00390625 1.890625 -0.015625 L 0.765625 -0.015625 C 0.671875 -0.00390625 0.53125 0 0.34375 0 C 0.332031 0 0.328125 -0.015625 0.328125 -0.046875 C 0.328125 -0.078125 0.332031 -0.09375 0.34375 -0.09375 C 0.550781 -0.09375 0.703125 -0.109375 0.796875 -0.140625 C 0.898438 -0.171875 0.96875 -0.222656 1 -0.296875 C 1.039062 -0.378906 1.0625 -0.5 1.0625 -0.65625 L 1.0625 -4.453125 C 1.0625 -4.609375 1.046875 -4.722656 1.015625 -4.796875 C 0.984375 -4.878906 0.914062 -4.9375 0.8125 -4.96875 C 0.71875 -5 0.570312 -5.015625 0.375 -5.015625 C 0.351562 -5.015625 0.34375 -5.03125 0.34375 -5.0625 C 0.34375 -5.09375 0.351562 -5.109375 0.375 -5.109375 L 0.765625 -5.09375 C 0.992188 -5.082031 1.179688 -5.078125 1.328125 -5.078125 C 1.441406 -5.078125 1.550781 -5.078125 1.65625 -5.078125 C 1.757812 -5.085938 1.847656 -5.097656 1.921875 -5.109375 C 2.117188 -5.117188 2.300781 -5.125 2.46875 -5.125 C 2.894531 -5.125 3.222656 -5.023438 3.453125 -4.828125 C 3.691406 -4.640625 3.8125 -4.378906 3.8125 -4.046875 C 3.8125 -3.753906 3.722656 -3.488281 3.546875 -3.25 C 3.378906 -3.019531 3.15625 -2.835938 2.875 -2.703125 C 3.332031 -2.035156 3.71875 -1.515625 4.03125 -1.140625 C 4.34375 -0.773438 4.617188 -0.507812 4.859375 -0.34375 C 5.109375 -0.175781 5.347656 -0.09375 5.578125 -0.09375 Z M 1.59375 -2.71875 C 1.726562 -2.695312 1.890625 -2.6875 2.078125 -2.6875 C 2.503906 -2.6875 2.804688 -2.773438 2.984375 -2.953125 C 3.171875 -3.140625 3.265625 -3.425781 3.265625 -3.8125 C 3.265625 -4.238281 3.171875 -4.546875 2.984375 -4.734375 C 2.796875 -4.921875 2.519531 -5.015625 2.15625 -5.015625 C 1.945312 -5.015625 1.800781 -4.972656 1.71875 -4.890625 C 1.632812 -4.816406 1.59375 -4.660156 1.59375 -4.421875 Z M 1.59375 -2.71875 "/></g></g></g><g fill="#ffffff" fill-opacity="1"><g transform="translate(256.453093, 289.701425)"><g><path d="M 3.875 -1.21875 C 3.875 -1.226562 3.890625 -1.234375 3.921875 -1.234375 C 3.929688 -1.234375 3.941406 -1.226562 3.953125 -1.21875 C 3.972656 -1.21875 3.984375 -1.210938 3.984375 -1.203125 C 3.929688 -0.859375 3.90625 -0.5 3.90625 -0.125 C 3.90625 -0.0820312 3.894531 -0.0507812 3.875 -0.03125 C 3.851562 -0.0078125 3.820312 0 3.78125 0 L 0.34375 0 C 0.332031 0 0.328125 -0.015625 0.328125 -0.046875 C 0.328125 -0.078125 0.332031 -0.09375 0.34375 -0.09375 C 0.550781 -0.09375 0.703125 -0.109375 0.796875 -0.140625 C 0.898438 -0.171875 0.96875 -0.222656 1 -0.296875 C 1.03125 -0.378906 1.046875 -0.5 1.046875 -0.65625 L 1.046875 -4.453125 C 1.046875 -4.609375 1.03125 -4.722656 1 -4.796875 C 0.96875 -4.878906 0.898438 -4.9375 0.796875 -4.96875 C 0.703125 -5 0.550781 -5.015625 0.34375 -5.015625 C 0.332031 -5.015625 0.328125 -5.03125 0.328125 -5.0625 C 0.328125 -5.09375 0.332031 -5.109375 0.34375 -5.109375 L 3.640625 -5.109375 C 3.679688 -5.109375 3.703125 -5.082031 3.703125 -5.03125 L 3.71875 -4.03125 C 3.71875 -4.007812 3.703125 -4 3.671875 -4 C 3.648438 -4 3.640625 -4.003906 3.640625 -4.015625 C 3.617188 -4.304688 3.53125 -4.53125 3.375 -4.6875 C 3.21875 -4.851562 3.007812 -4.9375 2.75 -4.9375 L 2.25 -4.9375 C 2.0625 -4.9375 1.921875 -4.921875 1.828125 -4.890625 C 1.734375 -4.859375 1.664062 -4.804688 1.625 -4.734375 C 1.59375 -4.660156 1.578125 -4.550781 1.578125 -4.40625 L 1.578125 -2.75 L 2.578125 -2.75 C 2.835938 -2.75 3.023438 -2.789062 3.140625 -2.875 C 3.253906 -2.957031 3.3125 -3.101562 3.3125 -3.3125 C 3.3125 -3.320312 3.328125 -3.328125 3.359375 -3.328125 C 3.390625 -3.328125 3.40625 -3.320312 3.40625 -3.3125 L 3.40625 -2.65625 C 3.40625 -2.5 3.40625 -2.378906 3.40625 -2.296875 L 3.421875 -1.90625 C 3.421875 -1.894531 3.398438 -1.890625 3.359375 -1.890625 C 3.328125 -1.890625 3.3125 -1.894531 3.3125 -1.90625 C 3.3125 -2.144531 3.253906 -2.316406 3.140625 -2.421875 C 3.023438 -2.523438 2.832031 -2.578125 2.5625 -2.578125 L 1.578125 -2.578125 L 1.578125 -0.6875 C 1.578125 -0.539062 1.59375 -0.429688 1.625 -0.359375 C 1.664062 -0.285156 1.726562 -0.234375 1.8125 -0.203125 C 1.894531 -0.179688 2.03125 -0.171875 2.21875 -0.171875 L 2.875 -0.171875 C 3.132812 -0.171875 3.351562 -0.265625 3.53125 -0.453125 C 3.707031 -0.640625 3.820312 -0.894531 3.875 -1.21875 Z M 3.875 -1.21875 "/></g></g></g></svg>